HIERARCHY
ROOT Hips
{
	OFFSET 0.00000 0.00000 0.00000
	CHANNELS 6 Xposition Yposition Zposition Zrotation Yrotation Xrotation 
	JOINT LHipJoint
	{
		OFFSET 0 0 0
		CHANNELS 3 Zrotation Yrotation Xrotation
		JOINT LeftHip
		{
			OFFSET 1.37590 -1.78394 0.89329
			CHANNELS 3 Zrotation Yrotation Xrotation
			JOINT LeftKnee
			{
				OFFSET 2.47928 -6.81178 0.00000
				CHANNELS 3 Zrotation Yrotation Xrotation
				JOINT LeftAnkle
				{
					OFFSET 2.63345 -7.23535 0.00000
					CHANNELS 3 Zrotation Yrotation Xrotation
					JOINT LeftToe
					{
						OFFSET 0.23938 -0.65768 2.27012
						CHANNELS 3 Zrotation Yrotation Xrotation
						End Site
						{
							OFFSET 0.00000 -0.00000 1.18363
						}
					}
				}
			}
		}
	}
	JOINT RHipJoint
	{
		OFFSET 0 0 0
		CHANNELS 3 Zrotation Yrotation Xrotation
		JOINT RightHip
		{
			OFFSET -1.33617 -1.78394 0.89329
			CHANNELS 3 Zrotation Yrotation Xrotation
			JOINT RightKnee
			{
				OFFSET -2.56922 -7.05888 0.00000
				CHANNELS 3 Zrotation Yrotation Xrotation
				JOINT RightAnkle
				{
					OFFSET -2.56568 -7.04915 0.00000
					CHANNELS 3 Zrotation Yrotation Xrotation
					JOINT RightToe
					{
						OFFSET -0.27533 -0.75646 2.18105
						CHANNELS 3 Zrotation Yrotation Xrotation
						End Site
						{
							OFFSET -0.00000 -0.00000 1.15233
						}
					}
				}
			}
		}
	}
	JOINT lowerback
	{
		OFFSET 0 0 0
		CHANNELS 3 Zrotation Yrotation Xrotation
		JOINT Chest
		{
			OFFSET 0.06190 2.15152 -0.00935
			CHANNELS 3 Zrotation Yrotation Xrotation
			JOINT Chest2
			{
				OFFSET 0.06334 2.15332 0.00872
				CHANNELS 3 Zrotation Yrotation Xrotation
				JOINT lowerneck
				{
					OFFSET 0 0 0
					CHANNELS 3 Zrotation Yrotation Xrotation
					JOINT Neck
					{
						OFFSET -0.04202 1.66908 0.23524
						CHANNELS 3 Zrotation Yrotation Xrotation
						JOINT Head
						{
							OFFSET 0.07510 1.69357 -0.24440
							CHANNELS 3 Zrotation Yrotation Xrotation
							End Site
							{
								OFFSET 0.02556 1.71719 -0.11000
							}
						}
					}
				}
				JOINT LeftCollar
				{
					OFFSET 0 0 0
					CHANNELS 3 Zrotation Yrotation Xrotation
					JOINT LeftShoulder
					{
						OFFSET 3.67168 1.26306 -0.41342
CHANNELS 3 Zrotation Xrotation Yrotation
						JOINT LeftElbow
						{
OFFSET 0 -4.685100 -0.000000
CHANNELS 3 Zrotation Xrotation Yrotation
							JOINT LeftWrist
							{
OFFSET 0 -3.396260 -0.000000
CHANNELS 3 Zrotation Xrotation Yrotation
								JOINT lhand
								{
									OFFSET 0 0 0
CHANNELS 3 Zrotation Xrotation Yrotation
									JOINT LFingers
									{
OFFSET 0 -0.486080 -0.000000
CHANNELS 3 Zrotation Xrotation Yrotation
										End Site
										{
OFFSET 0 -0.391890 -0.000000
										}
									}
								}
								JOINT LThumb
								{
OFFSET 0 0.000000 0.000000
CHANNELS 3 Zrotation Xrotation Yrotation
									End Site
									{
OFFSET 0 -0.397870 0.397870
									}
								}
							}
						}
					}
				}
				JOINT RightCollar
				{
					OFFSET 0 0 0
					CHANNELS 3 Zrotation Yrotation Xrotation
					JOINT RightShoulder
					{
						OFFSET -3.04136 1.42992 -0.76390
CHANNELS 3 Zrotation Xrotation Yrotation
						JOINT RightElbow
						{
OFFSET 0 -5.555760 -0.000000
CHANNELS 3 Zrotation Xrotation Yrotation
							JOINT RightWrist
							{
OFFSET 0 -3.327740 -0.000000
CHANNELS 3 Zrotation Xrotation Yrotation
								JOINT rhand
								{
									OFFSET 0 0 0
CHANNELS 3 Zrotation Xrotation Yrotation
									JOINT RFingers
									{
OFFSET 0 -0.507630 -0.000000
CHANNELS 3 Zrotation Xrotation Yrotation
										End Site
										{
OFFSET 0 -0.409260 -0.000000
										}
									}
								}
								JOINT RThumb
								{
OFFSET 0 0.000000 0.000000
CHANNELS 3 Zrotation Xrotation Yrotation
									End Site
									{
OFFSET 0 -0.415510 0.415510
									}
								}
							}
						}
					}
				}
			}
		}
	}
}
MOTION
Frames: 6
Frame Time: 0.008333333333333333
32.494500 17.304200 6.089300 168.507000 -85.624500 -168.784000 0.000000 0.000000 0.000000 -23.068300 -5.490800 -14.018600 2.494500 9.827900 28.421100 0.472200 -2.758700 -12.326300 0.065700 1.653600 4.549100 0.000000 0.000000 0.000000 10.519400 8.454800 -41.453800 -15.660300 -19.542300 77.217900 -39.591500 12.177700 -166.693300 -0.769000 -5.599700 15.627200 -1.349200 -1.828300 3.978100 0.889000 -2.482800 -0.334500 1.818100 -1.215500 -2.475800 -4.781200 -3.030100 -20.230900 8.713800 -4.348000 12.592600 3.129000 -1.504600 7.492100 0.000000 -0.000000 0.000000 -1.875200 -7.846900 -50.010400 45.689900 -51.102000 22.774400 15.069700 6.934400 -15.122800 0.000000 0.000000 0.000000 -7.125000 0.000000 0.000000 -11.671800 45.287800 0.084100 0.000000 -0.000000 0.000000 -8.594300 13.942300 15.842300 -21.798800 -32.748900 -6.476700 -11.933700 17.008100 9.464600 0.000000 0.000000 0.000000 7.125000 0.000000 -0.000000 13.029900 39.323300 1.859600
32.434432 17.329394 6.091608 164.059267 -85.894774 -164.511279 0.000000 0.000000 0.000000 -23.547563 -5.576383 -13.266114 2.411033 9.673467 27.926323 0.472456 -2.680810 -12.340147 0.059802 1.576736 4.337163 0.000000 0.000000 0.000000 9.955901 8.560897 -43.789212 -15.101224 -19.409983 75.538301 -39.578422 11.821907 -166.702788 -0.782847 -5.648549 15.768043 -1.715699 -2.041327 4.595449 0.948876 -2.793911 -0.459893 2.134147 -1.357433 -2.917688 -4.858449 -2.901373 -20.244555 8.657322 -4.157410 12.857041 3.149835 -1.417543 7.567361 0.000000 0.000000 0.000000 -1.790964 -8.498097 -50.465943 46.484184 -51.472025 23.395082 15.100343 6.746567 -14.261460 0.000000 0.000000 0.000000 -7.125000 0.000000 0.000000 -11.415116 44.423896 -0.161365 0.000000 0.000000 0.000000 -9.027983 14.635616 15.085198 -21.543719 -32.456829 -6.339511 -11.895044 17.158687 9.260035 0.000000 0.000000 0.000000 7.125000 0.000000 0.000000 13.018297 39.117132 1.925245
32.373207 17.353657 6.092844 159.591503 -86.210840 -160.251818 0.000000 0.000000 0.000000 -23.955219 -5.667467 -12.461122 2.328694 9.518808 27.432704 0.473164 -2.659404 -12.352527 0.059237 1.569419 4.317050 0.000000 0.000000 0.000000 9.457575 8.615278 -46.052906 -14.591974 -19.281165 74.002422 -39.559956 11.584358 -166.608844 -0.836983 -5.830285 16.294397 -2.016432 -2.275627 5.172650 1.006438 -3.131457 -0.544291 2.413911 -1.513839 -3.294206 -4.860847 -2.770136 -20.210895 8.536037 -3.969557 13.062487 3.135684 -1.336326 7.612462 0.000000 0.000000 0.000000 -1.673068 -9.151298 -50.876429 47.295988 -51.841993 24.031762 15.044568 6.603312 -13.712870 0.000000 0.000000 0.000000 -7.125000 0.000000 0.000000 -11.319758 43.865349 -0.321568 0.000000 0.000000 0.000000 -9.455261 15.365242 14.476303 -21.393564 -32.284864 -6.258807 -11.825324 17.217128 9.102756 0.000000 0.000000 0.000000 7.125000 0.000000 0.000000 13.043286 38.955683 1.982088
32.310511 17.376735 6.092715 155.098254 -86.585160 -156.009227 0.000000 0.000000 0.000000 -24.271779 -5.765550 -11.589333 2.247791 9.363861 26.940555 0.474446 -2.709856 -12.363041 0.065455 1.650578 4.540976 0.000000 0.000000 0.000000 9.042163 8.603867 -48.225358 -14.146111 -19.156798 72.649383 -39.534633 11.497236 -166.383316 -0.942375 -6.181078 17.311196 -2.233497 -2.536991 5.698775 1.061057 -3.502636 -0.576537 2.647516 -1.688658 -3.587559 -4.768020 -2.635704 -20.117043 8.332305 -3.785186 13.192880 3.077027 -1.262539 7.619194 0.000000 0.000000 0.000000 -1.512352 -9.807047 -51.229594 48.130082 -52.211889 24.688793 14.878851 6.516767 -13.562154 0.000000 0.000000 0.000000 -7.125000 0.000000 0.000000 -11.429637 43.695274 -0.373303 0.000000 0.000000 0.000000 -9.874392 16.141063 14.055954 -21.376897 -32.265696 -6.249960 -11.716086 17.158342 9.005634 0.000000 0.000000 0.000000 7.125000 0.000000 0.000000 13.114830 38.851125 2.027732
32.243695 17.395525 6.088863 151.112851 -86.943511 -152.256426 0.000000 0.000000 0.000000 -24.457540 -5.828762 -10.768780 2.176707 9.224038 26.499305 0.475841 -2.744283 -12.376940 0.061686 1.601898 4.406756 0.000000 0.000000 0.000000 8.749819 8.677492 -50.277000 -13.813723 -19.054833 71.633215 -39.526917 11.374058 -166.349529 -0.931978 -6.149349 17.218463 -2.332235 -2.787577 5.826240 1.086729 -3.845319 -0.342954 2.754160 -1.864324 -3.388526 -4.659788 -2.494726 -20.246022 8.271448 -3.604257 13.134637 3.061084 -1.174307 7.605611 0.000000 0.000000 0.000000 -1.215195 -10.797579 -51.524413 48.830162 -52.510349 25.243521 14.729104 6.377181 -13.347789 0.000000 0.000000 0.000000 -7.125000 0.000000 0.000000 -11.509271 43.463410 -0.442981 0.000000 0.000000 0.000000 -10.121757 16.456888 13.563209 -21.315708 -32.195010 -6.217357 -11.622704 17.179570 8.815689 0.000000 0.000000 0.000000 7.125000 0.000000 0.000000 13.153081 38.655888 2.098486
32.176565 17.414286 6.084853 146.585671 -87.287696 -147.955077 0.000000 0.000000 0.000000 -24.627984 -5.889404 -9.958855 2.107431 9.085861 26.064652 0.477437 -2.776467 -12.394010 0.057933 1.553063 4.272071 0.000000 0.000000 0.000000 8.459767 8.758891 -52.317683 -13.492302 -18.951460 70.646508 -39.520076 11.258211 -166.321753 -0.924857 -6.126405 17.151795 -2.429160 -3.031809 5.978199 1.121993 -4.180263 -0.133152 2.872683 -2.035218 -3.226037 -4.562418 -2.357232 -20.369393 8.210671 -3.426383 13.095013 3.046767 -1.087948 7.597868 0.000000 0.000000 0.000000 -0.924192 -11.747800 -51.805808 49.541243 -52.806889 25.808742 14.589251 6.243272 -13.107944 0.000000 0.000000 0.000000 -7.125000 0.000000 0.000000 -11.573845 43.207183 -0.519639 0.000000 0.000000 0.000000 -10.384741 16.803418 13.082481 -21.258295 -32.128647 -6.186778 -11.534827 17.192160 8.635823 0.000000 0.000000 0.000000 7.125000 0.000000 0.000000 13.188854 38.471124 2.165615
